<?xml version="1.0" encoding="UTF-8" standalone="no"?>
<!DOCTYPE svg PUBLIC "-//W3C//DTD SVG 1.1//EN"
 "http://www.w3.org/Graphics/SVG/1.1/DTD/svg11.dtd">
<!-- Generated by graphviz version 2.30.1 (20201013.1554)
 -->
<!-- Title: bin_tree Pages: 1 -->
<svg width="671pt" height="266pt"
 viewBox="0.00 0.00 671.00 266.00" xmlns="http://www.w3.org/2000/svg" xmlns:xlink="http://www.w3.org/1999/xlink">
<g id="graph0" class="graph" transform="scale(1 1) rotate(0) translate(4 262)">
<title>bin_tree</title>
<polygon fill="white" stroke="white" points="-4,5 -4,-262 668,-262 668,5 -4,5"/>
<!-- 1 -->
<g id="node1" class="node"><title>1</title>
<ellipse fill="none" stroke="black" cx="326" cy="-240" rx="18" ry="18"/>
<text text-anchor="middle" x="326" y="-236.3" font-family="Times,serif" font-size="14.00">1</text>
</g>
<!-- 2 -->
<g id="node2" class="node"><title>2</title>
<ellipse fill="none" stroke="black" cx="186" cy="-168" rx="18" ry="18"/>
<text text-anchor="middle" x="186" y="-164.3" font-family="Times,serif" font-size="14.00">2</text>
</g>
<!-- 1&#45;&#45;2 -->
<g id="edge1" class="edge"><title>1&#45;&#45;2</title>
<path fill="none" stroke="black" d="M310.212,-231.106C283.324,-217.662 228.94,-190.47 201.945,-176.972"/>
</g>
<!-- 3 -->
<g id="node3" class="node"><title>3</title>
<ellipse fill="none" stroke="black" cx="466" cy="-168" rx="18" ry="18"/>
<text text-anchor="middle" x="466" y="-164.3" font-family="Times,serif" font-size="14.00">3</text>
</g>
<!-- 1&#45;&#45;3 -->
<g id="edge2" class="edge"><title>1&#45;&#45;3</title>
<path fill="none" stroke="black" d="M341.788,-231.106C368.676,-217.662 423.06,-190.47 450.055,-176.972"/>
</g>
<!-- 4 -->
<g id="node4" class="node"><title>4</title>
<ellipse fill="none" stroke="black" cx="72" cy="-96" rx="18" ry="18"/>
<text text-anchor="middle" x="72" y="-92.3" font-family="Times,serif" font-size="14.00">4</text>
</g>
<!-- 2&#45;&#45;4 -->
<g id="edge3" class="edge"><title>2&#45;&#45;4</title>
<path fill="none" stroke="black" d="M171.096,-157.849C149.248,-144.433 108.757,-119.57 86.9072,-106.154"/>
</g>
<!-- m2 -->
<!-- 2&#45;&#45;m2 -->
<!-- 5 -->
<g id="node6" class="node"><title>5</title>
<ellipse fill="none" stroke="black" cx="240" cy="-96" rx="18" ry="18"/>
<text text-anchor="middle" x="240" y="-92.3" font-family="Times,serif" font-size="14.00">5</text>
</g>
<!-- 2&#45;&#45;5 -->
<g id="edge5" class="edge"><title>2&#45;&#45;5</title>
<path fill="none" stroke="black" d="M196.669,-153.17C206.136,-140.898 219.893,-123.064 229.354,-110.801"/>
</g>
<!-- 6 -->
<g id="node13" class="node"><title>6</title>
<ellipse fill="none" stroke="black" cx="412" cy="-96" rx="18" ry="18"/>
<text text-anchor="middle" x="412" y="-92.3" font-family="Times,serif" font-size="14.00">6</text>
</g>
<!-- 3&#45;&#45;6 -->
<g id="edge12" class="edge"><title>3&#45;&#45;6</title>
<path fill="none" stroke="black" d="M455.331,-153.17C445.864,-140.898 432.107,-123.064 422.646,-110.801"/>
</g>
<!-- m3 -->
<!-- 3&#45;&#45;m3 -->
<!-- 7 -->
<g id="node15" class="node"><title>7</title>
<ellipse fill="none" stroke="black" cx="586" cy="-96" rx="18" ry="18"/>
<text text-anchor="middle" x="586" y="-92.3" font-family="Times,serif" font-size="14.00">7</text>
</g>
<!-- 3&#45;&#45;7 -->
<g id="edge14" class="edge"><title>3&#45;&#45;7</title>
<path fill="none" stroke="black" d="M481.198,-158.134C504.154,-144.743 547.44,-119.493 570.546,-106.015"/>
</g>
<!-- 8 -->
<g id="node10" class="node"><title>8</title>
<ellipse fill="none" stroke="black" cx="18" cy="-21" rx="18" ry="18"/>
<text text-anchor="middle" x="18" y="-17.3" font-family="Times,serif" font-size="14.00">8</text>
</g>
<!-- 4&#45;&#45;8 -->
<g id="edge9" class="edge"><title>4&#45;&#45;8</title>
<path fill="none" stroke="black" d="M61.5883,-80.9249C52.0261,-67.9982 37.9318,-48.9449 28.3798,-36.0319"/>
</g>
<!-- m4 -->
<!-- 4&#45;&#45;m4 -->
<!-- 9 -->
<g id="node12" class="node"><title>9</title>
<ellipse fill="none" stroke="black" cx="126" cy="-21" rx="18" ry="18"/>
<text text-anchor="middle" x="126" y="-17.3" font-family="Times,serif" font-size="14.00">9</text>
</g>
<!-- 4&#45;&#45;9 -->
<g id="edge11" class="edge"><title>4&#45;&#45;9</title>
<path fill="none" stroke="black" d="M82.4117,-80.9249C91.9739,-67.9982 106.068,-48.9449 115.62,-36.0319"/>
</g>
<!-- 10 -->
<g id="node7" class="node"><title>10</title>
<ellipse fill="none" stroke="black" cx="183" cy="-21" rx="20.203" ry="20.5982"/>
<text text-anchor="middle" x="183" y="-17.3" font-family="Times,serif" font-size="14.00">10</text>
</g>
<!-- 5&#45;&#45;10 -->
<g id="edge6" class="edge"><title>5&#45;&#45;10</title>
<path fill="none" stroke="black" d="M229.279,-81.2693C219.604,-68.8788 205.378,-50.66 195.256,-37.6968"/>
</g>
<!-- m5 -->
<!-- 5&#45;&#45;m5 -->
<!-- 11 -->
<g id="node9" class="node"><title>11</title>
<ellipse fill="none" stroke="black" cx="296" cy="-21" rx="20.2229" ry="20.2975"/>
<text text-anchor="middle" x="296" y="-17.3" font-family="Times,serif" font-size="14.00">11</text>
</g>
<!-- 5&#45;&#45;11 -->
<g id="edge8" class="edge"><title>5&#45;&#45;11</title>
<path fill="none" stroke="black" d="M250.533,-81.2693C260.102,-68.7962 274.201,-50.4168 284.157,-37.4382"/>
</g>
<!-- 12 -->
<g id="node16" class="node"><title>12</title>
<ellipse fill="none" stroke="black" cx="355" cy="-21" rx="20.203" ry="20.5982"/>
<text text-anchor="middle" x="355" y="-17.3" font-family="Times,serif" font-size="14.00">12</text>
</g>
<!-- 6&#45;&#45;12 -->
<g id="edge15" class="edge"><title>6&#45;&#45;12</title>
<path fill="none" stroke="black" d="M401.279,-81.2693C391.604,-68.8788 377.378,-50.66 367.256,-37.6968"/>
</g>
<!-- m6 -->
<!-- 6&#45;&#45;m6 -->
<!-- 13 -->
<g id="node18" class="node"><title>13</title>
<ellipse fill="none" stroke="black" cx="469" cy="-21" rx="20.203" ry="20.5982"/>
<text text-anchor="middle" x="469" y="-17.3" font-family="Times,serif" font-size="14.00">13</text>
</g>
<!-- 6&#45;&#45;13 -->
<g id="edge17" class="edge"><title>6&#45;&#45;13</title>
<path fill="none" stroke="black" d="M422.721,-81.2693C432.396,-68.8788 446.622,-50.66 456.744,-37.6968"/>
</g>
<!-- 14 -->
<g id="node19" class="node"><title>14</title>
<ellipse fill="none" stroke="black" cx="529" cy="-21" rx="20.203" ry="20.5982"/>
<text text-anchor="middle" x="529" y="-17.3" font-family="Times,serif" font-size="14.00">14</text>
</g>
<!-- 7&#45;&#45;14 -->
<g id="edge18" class="edge"><title>7&#45;&#45;14</title>
<path fill="none" stroke="black" d="M575.279,-81.2693C565.604,-68.8788 551.378,-50.66 541.256,-37.6968"/>
</g>
<!-- m7 -->
<!-- 7&#45;&#45;m7 -->
<!-- 15 -->
<g id="node21" class="node"><title>15</title>
<ellipse fill="none" stroke="black" cx="643" cy="-21" rx="20.203" ry="20.5982"/>
<text text-anchor="middle" x="643" y="-17.3" font-family="Times,serif" font-size="14.00">15</text>
</g>
<!-- 7&#45;&#45;15 -->
<g id="edge20" class="edge"><title>7&#45;&#45;15</title>
<path fill="none" stroke="black" d="M596.721,-81.2693C606.396,-68.8788 620.622,-50.66 630.744,-37.6968"/>
</g>
</g>
</svg>
